<mxfile host="Electron" agent="Mozilla/5.0 (Macintosh; Intel Mac OS X 10_15_7) AppleWebKit/537.36 (KHTML, like Gecko) draw.io/24.7.5 Chrome/126.0.6478.183 Electron/31.3.0 Safari/537.36" version="24.7.5">
  <diagram name="Página-1" id="FpNZV6B7wBK7xaCsQRTJ">
    <mxGraphModel dx="1621" dy="534" grid="1" gridSize="10" guides="1" tooltips="1" connect="1" arrows="1" fold="1" page="1" pageScale="1" pageWidth="827" pageHeight="1169" math="0" shadow="0">
      <root>
        <mxCell id="0" />
        <mxCell id="1" parent="0" />
        <mxCell id="LzrnwDut8WQBUcOHvvvX-20" style="edgeStyle=orthogonalEdgeStyle;rounded=0;orthogonalLoop=1;jettySize=auto;html=1;exitX=1;exitY=0.5;exitDx=0;exitDy=0;entryX=0;entryY=0.5;entryDx=0;entryDy=0;endArrow=none;endFill=0;" edge="1" parent="1" source="LzrnwDut8WQBUcOHvvvX-1" target="LzrnwDut8WQBUcOHvvvX-19">
          <mxGeometry relative="1" as="geometry" />
        </mxCell>
        <mxCell id="LzrnwDut8WQBUcOHvvvX-26" style="edgeStyle=orthogonalEdgeStyle;rounded=0;orthogonalLoop=1;jettySize=auto;html=1;exitX=0.5;exitY=1;exitDx=0;exitDy=0;entryX=0.5;entryY=0;entryDx=0;entryDy=0;endArrow=none;endFill=0;" edge="1" parent="1" source="LzrnwDut8WQBUcOHvvvX-1" target="LzrnwDut8WQBUcOHvvvX-25">
          <mxGeometry relative="1" as="geometry" />
        </mxCell>
        <mxCell id="LzrnwDut8WQBUcOHvvvX-93" style="edgeStyle=orthogonalEdgeStyle;rounded=0;orthogonalLoop=1;jettySize=auto;html=1;exitX=1;exitY=0.75;exitDx=0;exitDy=0;entryX=0;entryY=0.5;entryDx=0;entryDy=0;endArrow=none;endFill=0;" edge="1" parent="1" source="LzrnwDut8WQBUcOHvvvX-1" target="LzrnwDut8WQBUcOHvvvX-92">
          <mxGeometry relative="1" as="geometry">
            <Array as="points">
              <mxPoint x="330" y="130" />
              <mxPoint x="330" y="185" />
            </Array>
          </mxGeometry>
        </mxCell>
        <mxCell id="LzrnwDut8WQBUcOHvvvX-1" value="PACIENTE" style="whiteSpace=wrap;html=1;align=center;" vertex="1" parent="1">
          <mxGeometry x="160" y="100" width="100" height="40" as="geometry" />
        </mxCell>
        <mxCell id="LzrnwDut8WQBUcOHvvvX-2" value="id" style="ellipse;whiteSpace=wrap;html=1;align=center;fontStyle=4;" vertex="1" parent="1">
          <mxGeometry x="70" y="40" width="60" height="40" as="geometry" />
        </mxCell>
        <mxCell id="LzrnwDut8WQBUcOHvvvX-3" value="nombre" style="ellipse;whiteSpace=wrap;html=1;align=center;" vertex="1" parent="1">
          <mxGeometry x="140" y="20" width="90" height="40" as="geometry" />
        </mxCell>
        <mxCell id="LzrnwDut8WQBUcOHvvvX-4" value="apellido" style="ellipse;whiteSpace=wrap;html=1;align=center;" vertex="1" parent="1">
          <mxGeometry x="240" y="20" width="80" height="40" as="geometry" />
        </mxCell>
        <mxCell id="LzrnwDut8WQBUcOHvvvX-5" value="tipoDoc" style="ellipse;whiteSpace=wrap;html=1;align=center;" vertex="1" parent="1">
          <mxGeometry y="80" width="90" height="40" as="geometry" />
        </mxCell>
        <mxCell id="LzrnwDut8WQBUcOHvvvX-6" value="nroDoc" style="ellipse;whiteSpace=wrap;html=1;align=center;" vertex="1" parent="1">
          <mxGeometry x="-60" y="125" width="90" height="40" as="geometry" />
        </mxCell>
        <mxCell id="LzrnwDut8WQBUcOHvvvX-7" value="fechaNac" style="ellipse;whiteSpace=wrap;html=1;align=center;" vertex="1" parent="1">
          <mxGeometry x="30" y="150" width="90" height="40" as="geometry" />
        </mxCell>
        <mxCell id="LzrnwDut8WQBUcOHvvvX-8" value="" style="endArrow=none;html=1;rounded=0;entryX=0.5;entryY=1;entryDx=0;entryDy=0;exitX=0.75;exitY=0;exitDx=0;exitDy=0;" edge="1" parent="1" source="LzrnwDut8WQBUcOHvvvX-1" target="LzrnwDut8WQBUcOHvvvX-4">
          <mxGeometry width="50" height="50" relative="1" as="geometry">
            <mxPoint x="150" y="260" as="sourcePoint" />
            <mxPoint x="200" y="210" as="targetPoint" />
          </mxGeometry>
        </mxCell>
        <mxCell id="LzrnwDut8WQBUcOHvvvX-9" value="" style="endArrow=none;html=1;rounded=0;entryX=0.589;entryY=0.9;entryDx=0;entryDy=0;exitX=0.5;exitY=0;exitDx=0;exitDy=0;entryPerimeter=0;" edge="1" parent="1" source="LzrnwDut8WQBUcOHvvvX-1" target="LzrnwDut8WQBUcOHvvvX-3">
          <mxGeometry width="50" height="50" relative="1" as="geometry">
            <mxPoint x="245" y="110" as="sourcePoint" />
            <mxPoint x="290" y="70" as="targetPoint" />
          </mxGeometry>
        </mxCell>
        <mxCell id="LzrnwDut8WQBUcOHvvvX-10" value="" style="endArrow=none;html=1;rounded=0;entryX=1;entryY=0.75;entryDx=0;entryDy=0;exitX=0.25;exitY=0;exitDx=0;exitDy=0;entryPerimeter=0;" edge="1" parent="1" source="LzrnwDut8WQBUcOHvvvX-1" target="LzrnwDut8WQBUcOHvvvX-2">
          <mxGeometry width="50" height="50" relative="1" as="geometry">
            <mxPoint x="220" y="110" as="sourcePoint" />
            <mxPoint x="203" y="66" as="targetPoint" />
          </mxGeometry>
        </mxCell>
        <mxCell id="LzrnwDut8WQBUcOHvvvX-11" value="" style="endArrow=none;html=1;rounded=0;entryX=1;entryY=0.5;entryDx=0;entryDy=0;exitX=0;exitY=0.25;exitDx=0;exitDy=0;" edge="1" parent="1" source="LzrnwDut8WQBUcOHvvvX-1" target="LzrnwDut8WQBUcOHvvvX-5">
          <mxGeometry width="50" height="50" relative="1" as="geometry">
            <mxPoint x="195" y="110" as="sourcePoint" />
            <mxPoint x="140" y="80" as="targetPoint" />
          </mxGeometry>
        </mxCell>
        <mxCell id="LzrnwDut8WQBUcOHvvvX-12" value="" style="endArrow=none;html=1;rounded=0;entryX=0.989;entryY=0.275;entryDx=0;entryDy=0;exitX=0;exitY=0.5;exitDx=0;exitDy=0;entryPerimeter=0;" edge="1" parent="1" source="LzrnwDut8WQBUcOHvvvX-1" target="LzrnwDut8WQBUcOHvvvX-6">
          <mxGeometry width="50" height="50" relative="1" as="geometry">
            <mxPoint x="170" y="120" as="sourcePoint" />
            <mxPoint x="100" y="120" as="targetPoint" />
          </mxGeometry>
        </mxCell>
        <mxCell id="LzrnwDut8WQBUcOHvvvX-13" value="" style="endArrow=none;html=1;rounded=0;entryX=0.778;entryY=0;entryDx=0;entryDy=0;exitX=0;exitY=1;exitDx=0;exitDy=0;entryPerimeter=0;" edge="1" parent="1" source="LzrnwDut8WQBUcOHvvvX-1" target="LzrnwDut8WQBUcOHvvvX-7">
          <mxGeometry width="50" height="50" relative="1" as="geometry">
            <mxPoint x="170" y="130" as="sourcePoint" />
            <mxPoint x="99" y="161" as="targetPoint" />
          </mxGeometry>
        </mxCell>
        <mxCell id="LzrnwDut8WQBUcOHvvvX-14" value="COBERTURA MÉDICA" style="whiteSpace=wrap;html=1;align=center;" vertex="1" parent="1">
          <mxGeometry x="520" y="100" width="100" height="40" as="geometry" />
        </mxCell>
        <mxCell id="LzrnwDut8WQBUcOHvvvX-15" value="codigo" style="ellipse;whiteSpace=wrap;html=1;align=center;fontStyle=4;" vertex="1" parent="1">
          <mxGeometry x="490" y="30" width="70" height="40" as="geometry" />
        </mxCell>
        <mxCell id="LzrnwDut8WQBUcOHvvvX-16" value="descripcion" style="ellipse;whiteSpace=wrap;html=1;align=center;" vertex="1" parent="1">
          <mxGeometry x="580" y="30" width="90" height="40" as="geometry" />
        </mxCell>
        <mxCell id="LzrnwDut8WQBUcOHvvvX-17" value="" style="endArrow=none;html=1;rounded=0;entryX=0.6;entryY=1.025;entryDx=0;entryDy=0;exitX=0.35;exitY=-0.05;exitDx=0;exitDy=0;entryPerimeter=0;exitPerimeter=0;" edge="1" parent="1" source="LzrnwDut8WQBUcOHvvvX-14" target="LzrnwDut8WQBUcOHvvvX-15">
          <mxGeometry width="50" height="50" relative="1" as="geometry">
            <mxPoint x="245" y="110" as="sourcePoint" />
            <mxPoint x="290" y="70" as="targetPoint" />
          </mxGeometry>
        </mxCell>
        <mxCell id="LzrnwDut8WQBUcOHvvvX-18" value="" style="endArrow=none;html=1;rounded=0;entryX=0.289;entryY=1.025;entryDx=0;entryDy=0;exitX=0.5;exitY=0;exitDx=0;exitDy=0;entryPerimeter=0;" edge="1" parent="1" source="LzrnwDut8WQBUcOHvvvX-14" target="LzrnwDut8WQBUcOHvvvX-16">
          <mxGeometry width="50" height="50" relative="1" as="geometry">
            <mxPoint x="565" y="108" as="sourcePoint" />
            <mxPoint x="542" y="81" as="targetPoint" />
          </mxGeometry>
        </mxCell>
        <mxCell id="LzrnwDut8WQBUcOHvvvX-21" style="edgeStyle=orthogonalEdgeStyle;rounded=0;orthogonalLoop=1;jettySize=auto;html=1;exitX=1;exitY=0.5;exitDx=0;exitDy=0;entryX=0;entryY=0.5;entryDx=0;entryDy=0;endArrow=none;endFill=0;" edge="1" parent="1" source="LzrnwDut8WQBUcOHvvvX-19" target="LzrnwDut8WQBUcOHvvvX-14">
          <mxGeometry relative="1" as="geometry" />
        </mxCell>
        <mxCell id="LzrnwDut8WQBUcOHvvvX-19" value="Tiene" style="shape=rhombus;perimeter=rhombusPerimeter;whiteSpace=wrap;html=1;align=center;" vertex="1" parent="1">
          <mxGeometry x="350" y="100" width="80" height="40" as="geometry" />
        </mxCell>
        <mxCell id="LzrnwDut8WQBUcOHvvvX-22" value="1" style="text;html=1;align=center;verticalAlign=middle;resizable=0;points=[];autosize=1;strokeColor=none;fillColor=none;" vertex="1" parent="1">
          <mxGeometry x="490" y="95" width="30" height="30" as="geometry" />
        </mxCell>
        <mxCell id="LzrnwDut8WQBUcOHvvvX-23" value="N" style="text;html=1;align=center;verticalAlign=middle;resizable=0;points=[];autosize=1;strokeColor=none;fillColor=none;" vertex="1" parent="1">
          <mxGeometry x="260" y="90" width="30" height="30" as="geometry" />
        </mxCell>
        <mxCell id="LzrnwDut8WQBUcOHvvvX-24" value="CONSULTA MÉDICA" style="shape=ext;margin=3;double=1;whiteSpace=wrap;html=1;align=center;" vertex="1" parent="1">
          <mxGeometry x="160" y="320" width="100" height="40" as="geometry" />
        </mxCell>
        <mxCell id="LzrnwDut8WQBUcOHvvvX-27" style="edgeStyle=orthogonalEdgeStyle;rounded=0;orthogonalLoop=1;jettySize=auto;html=1;exitX=0.5;exitY=1;exitDx=0;exitDy=0;entryX=0.5;entryY=0;entryDx=0;entryDy=0;endArrow=none;endFill=0;shape=link;" edge="1" parent="1" source="LzrnwDut8WQBUcOHvvvX-25" target="LzrnwDut8WQBUcOHvvvX-24">
          <mxGeometry relative="1" as="geometry" />
        </mxCell>
        <mxCell id="LzrnwDut8WQBUcOHvvvX-25" value="Realiza" style="shape=rhombus;double=1;perimeter=rhombusPerimeter;whiteSpace=wrap;html=1;align=center;" vertex="1" parent="1">
          <mxGeometry x="170" y="230" width="80" height="40" as="geometry" />
        </mxCell>
        <mxCell id="LzrnwDut8WQBUcOHvvvX-28" value="&lt;span style=&quot;border-bottom: 1px dotted&quot;&gt;fechaYHora&lt;/span&gt;" style="ellipse;whiteSpace=wrap;html=1;align=center;" vertex="1" parent="1">
          <mxGeometry x="300" y="320" width="100" height="40" as="geometry" />
        </mxCell>
        <mxCell id="LzrnwDut8WQBUcOHvvvX-29" value="" style="endArrow=none;html=1;rounded=0;entryX=0.778;entryY=0;entryDx=0;entryDy=0;exitX=0;exitY=0.5;exitDx=0;exitDy=0;entryPerimeter=0;" edge="1" parent="1" source="LzrnwDut8WQBUcOHvvvX-28">
          <mxGeometry width="50" height="50" relative="1" as="geometry">
            <mxPoint x="310" y="290" as="sourcePoint" />
            <mxPoint x="260" y="340" as="targetPoint" />
          </mxGeometry>
        </mxCell>
        <mxCell id="LzrnwDut8WQBUcOHvvvX-30" value="TIPO DE ESTUDIO" style="whiteSpace=wrap;html=1;align=center;" vertex="1" parent="1">
          <mxGeometry x="667" y="220" width="100" height="40" as="geometry" />
        </mxCell>
        <mxCell id="LzrnwDut8WQBUcOHvvvX-32" style="edgeStyle=orthogonalEdgeStyle;rounded=0;orthogonalLoop=1;jettySize=auto;html=1;exitX=0;exitY=0.5;exitDx=0;exitDy=0;entryX=1;entryY=1;entryDx=0;entryDy=0;endArrow=none;endFill=0;" edge="1" parent="1" target="LzrnwDut8WQBUcOHvvvX-1">
          <mxGeometry relative="1" as="geometry">
            <mxPoint x="450" y="240" as="sourcePoint" />
            <Array as="points">
              <mxPoint x="450" y="230" />
              <mxPoint x="240" y="230" />
              <mxPoint x="240" y="140" />
            </Array>
          </mxGeometry>
        </mxCell>
        <mxCell id="LzrnwDut8WQBUcOHvvvX-33" style="edgeStyle=orthogonalEdgeStyle;rounded=0;orthogonalLoop=1;jettySize=auto;html=1;exitX=1;exitY=0.5;exitDx=0;exitDy=0;entryX=0;entryY=0.5;entryDx=0;entryDy=0;endArrow=none;endFill=0;" edge="1" parent="1" target="LzrnwDut8WQBUcOHvvvX-30">
          <mxGeometry relative="1" as="geometry">
            <mxPoint x="530" y="240" as="sourcePoint" />
          </mxGeometry>
        </mxCell>
        <mxCell id="LzrnwDut8WQBUcOHvvvX-34" value="1" style="text;html=1;align=center;verticalAlign=middle;resizable=0;points=[];autosize=1;strokeColor=none;fillColor=none;" vertex="1" parent="1">
          <mxGeometry x="205" y="138" width="30" height="30" as="geometry" />
        </mxCell>
        <mxCell id="LzrnwDut8WQBUcOHvvvX-35" value="N" style="text;html=1;align=center;verticalAlign=middle;resizable=0;points=[];autosize=1;strokeColor=none;fillColor=none;" vertex="1" parent="1">
          <mxGeometry x="210" y="290" width="30" height="30" as="geometry" />
        </mxCell>
        <mxCell id="LzrnwDut8WQBUcOHvvvX-36" value="N" style="text;html=1;align=center;verticalAlign=middle;resizable=0;points=[];autosize=1;strokeColor=none;fillColor=none;" vertex="1" parent="1">
          <mxGeometry x="637" y="210" width="30" height="30" as="geometry" />
        </mxCell>
        <mxCell id="LzrnwDut8WQBUcOHvvvX-37" value="N" style="text;html=1;align=center;verticalAlign=middle;resizable=0;points=[];autosize=1;strokeColor=none;fillColor=none;" vertex="1" parent="1">
          <mxGeometry x="235" y="138" width="30" height="30" as="geometry" />
        </mxCell>
        <mxCell id="LzrnwDut8WQBUcOHvvvX-38" value="codigo" style="ellipse;whiteSpace=wrap;html=1;align=center;fontStyle=4;" vertex="1" parent="1">
          <mxGeometry x="647" y="300" width="70" height="40" as="geometry" />
        </mxCell>
        <mxCell id="LzrnwDut8WQBUcOHvvvX-39" value="descripcion" style="ellipse;whiteSpace=wrap;html=1;align=center;" vertex="1" parent="1">
          <mxGeometry x="737" y="300" width="90" height="40" as="geometry" />
        </mxCell>
        <mxCell id="LzrnwDut8WQBUcOHvvvX-40" value="" style="endArrow=none;html=1;rounded=0;entryX=0;entryY=0;entryDx=0;entryDy=0;exitX=1;exitY=1;exitDx=0;exitDy=0;" edge="1" parent="1" source="LzrnwDut8WQBUcOHvvvX-92" target="LzrnwDut8WQBUcOHvvvX-95">
          <mxGeometry width="50" height="50" relative="1" as="geometry">
            <mxPoint x="712" y="108" as="sourcePoint" />
            <mxPoint x="689" y="81" as="targetPoint" />
          </mxGeometry>
        </mxCell>
        <mxCell id="LzrnwDut8WQBUcOHvvvX-41" value="" style="endArrow=none;html=1;rounded=0;exitX=0.65;exitY=1.025;exitDx=0;exitDy=0;exitPerimeter=0;entryX=0.311;entryY=-0.075;entryDx=0;entryDy=0;entryPerimeter=0;" edge="1" parent="1" source="LzrnwDut8WQBUcOHvvvX-30" target="LzrnwDut8WQBUcOHvvvX-39">
          <mxGeometry width="50" height="50" relative="1" as="geometry">
            <mxPoint x="719" y="271" as="sourcePoint" />
            <mxPoint x="767" y="290" as="targetPoint" />
          </mxGeometry>
        </mxCell>
        <mxCell id="LzrnwDut8WQBUcOHvvvX-42" value="MÉDICO" style="whiteSpace=wrap;html=1;align=center;" vertex="1" parent="1">
          <mxGeometry x="160" y="490" width="100" height="40" as="geometry" />
        </mxCell>
        <mxCell id="LzrnwDut8WQBUcOHvvvX-45" style="edgeStyle=orthogonalEdgeStyle;rounded=0;orthogonalLoop=1;jettySize=auto;html=1;exitX=0.5;exitY=1;exitDx=0;exitDy=0;entryX=0.5;entryY=0;entryDx=0;entryDy=0;endArrow=none;endFill=0;" edge="1" parent="1" source="LzrnwDut8WQBUcOHvvvX-43" target="LzrnwDut8WQBUcOHvvvX-42">
          <mxGeometry relative="1" as="geometry" />
        </mxCell>
        <mxCell id="LzrnwDut8WQBUcOHvvvX-43" value="Atendida por" style="shape=rhombus;double=1;perimeter=rhombusPerimeter;whiteSpace=wrap;html=1;align=center;" vertex="1" parent="1">
          <mxGeometry x="170" y="410" width="80" height="40" as="geometry" />
        </mxCell>
        <mxCell id="LzrnwDut8WQBUcOHvvvX-44" style="edgeStyle=orthogonalEdgeStyle;rounded=0;orthogonalLoop=1;jettySize=auto;html=1;entryX=0.5;entryY=0;entryDx=0;entryDy=0;endArrow=none;endFill=0;shape=link;" edge="1" parent="1" target="LzrnwDut8WQBUcOHvvvX-43">
          <mxGeometry relative="1" as="geometry">
            <mxPoint x="210" y="360" as="sourcePoint" />
            <mxPoint x="220" y="330" as="targetPoint" />
          </mxGeometry>
        </mxCell>
        <mxCell id="LzrnwDut8WQBUcOHvvvX-46" value="1" style="text;html=1;align=center;verticalAlign=middle;resizable=0;points=[];autosize=1;strokeColor=none;fillColor=none;" vertex="1" parent="1">
          <mxGeometry x="210" y="460" width="30" height="30" as="geometry" />
        </mxCell>
        <mxCell id="LzrnwDut8WQBUcOHvvvX-47" value="N" style="text;html=1;align=center;verticalAlign=middle;resizable=0;points=[];autosize=1;strokeColor=none;fillColor=none;" vertex="1" parent="1">
          <mxGeometry x="210" y="360" width="30" height="30" as="geometry" />
        </mxCell>
        <mxCell id="LzrnwDut8WQBUcOHvvvX-48" value="matrícula" style="ellipse;whiteSpace=wrap;html=1;align=center;fontStyle=4;" vertex="1" parent="1">
          <mxGeometry x="300" y="390" width="90" height="40" as="geometry" />
        </mxCell>
        <mxCell id="LzrnwDut8WQBUcOHvvvX-49" value="nombre" style="ellipse;whiteSpace=wrap;html=1;align=center;" vertex="1" parent="1">
          <mxGeometry x="300" y="450" width="100" height="40" as="geometry" />
        </mxCell>
        <mxCell id="LzrnwDut8WQBUcOHvvvX-50" value="apellido" style="ellipse;whiteSpace=wrap;html=1;align=center;" vertex="1" parent="1">
          <mxGeometry x="300" y="515" width="100" height="40" as="geometry" />
        </mxCell>
        <mxCell id="LzrnwDut8WQBUcOHvvvX-51" value="" style="endArrow=none;html=1;rounded=0;entryX=0.86;entryY=-0.1;entryDx=0;entryDy=0;exitX=0;exitY=0.5;exitDx=0;exitDy=0;entryPerimeter=0;" edge="1" parent="1" source="LzrnwDut8WQBUcOHvvvX-48" target="LzrnwDut8WQBUcOHvvvX-42">
          <mxGeometry width="50" height="50" relative="1" as="geometry">
            <mxPoint x="310" y="350" as="sourcePoint" />
            <mxPoint x="270" y="350" as="targetPoint" />
          </mxGeometry>
        </mxCell>
        <mxCell id="LzrnwDut8WQBUcOHvvvX-52" value="" style="endArrow=none;html=1;rounded=0;entryX=1;entryY=0.25;entryDx=0;entryDy=0;exitX=0;exitY=0.5;exitDx=0;exitDy=0;" edge="1" parent="1" source="LzrnwDut8WQBUcOHvvvX-49" target="LzrnwDut8WQBUcOHvvvX-42">
          <mxGeometry width="50" height="50" relative="1" as="geometry">
            <mxPoint x="310" y="450" as="sourcePoint" />
            <mxPoint x="256" y="496" as="targetPoint" />
          </mxGeometry>
        </mxCell>
        <mxCell id="LzrnwDut8WQBUcOHvvvX-53" value="" style="endArrow=none;html=1;rounded=0;entryX=1;entryY=0.75;entryDx=0;entryDy=0;exitX=0.01;exitY=0.35;exitDx=0;exitDy=0;exitPerimeter=0;" edge="1" parent="1" source="LzrnwDut8WQBUcOHvvvX-50" target="LzrnwDut8WQBUcOHvvvX-42">
          <mxGeometry width="50" height="50" relative="1" as="geometry">
            <mxPoint x="310" y="510" as="sourcePoint" />
            <mxPoint x="270" y="510" as="targetPoint" />
          </mxGeometry>
        </mxCell>
        <mxCell id="LzrnwDut8WQBUcOHvvvX-56" style="edgeStyle=orthogonalEdgeStyle;rounded=0;orthogonalLoop=1;jettySize=auto;html=1;exitX=0.5;exitY=1;exitDx=0;exitDy=0;entryX=0.5;entryY=0;entryDx=0;entryDy=0;endArrow=none;endFill=0;" edge="1" parent="1" source="LzrnwDut8WQBUcOHvvvX-54" target="LzrnwDut8WQBUcOHvvvX-55">
          <mxGeometry relative="1" as="geometry" />
        </mxCell>
        <mxCell id="LzrnwDut8WQBUcOHvvvX-54" value="ESPECIALIDAD" style="whiteSpace=wrap;html=1;align=center;" vertex="1" parent="1">
          <mxGeometry x="-270" y="320" width="100" height="40" as="geometry" />
        </mxCell>
        <mxCell id="LzrnwDut8WQBUcOHvvvX-58" style="edgeStyle=orthogonalEdgeStyle;rounded=0;orthogonalLoop=1;jettySize=auto;html=1;exitX=1;exitY=0.5;exitDx=0;exitDy=0;entryX=0;entryY=0.5;entryDx=0;entryDy=0;endArrow=none;endFill=0;" edge="1" parent="1" source="LzrnwDut8WQBUcOHvvvX-55" target="LzrnwDut8WQBUcOHvvvX-42">
          <mxGeometry relative="1" as="geometry" />
        </mxCell>
        <mxCell id="LzrnwDut8WQBUcOHvvvX-55" value="Ejercida por" style="shape=rhombus;perimeter=rhombusPerimeter;whiteSpace=wrap;html=1;align=center;" vertex="1" parent="1">
          <mxGeometry x="-260" y="490" width="80" height="40" as="geometry" />
        </mxCell>
        <mxCell id="LzrnwDut8WQBUcOHvvvX-59" value="N" style="text;html=1;align=center;verticalAlign=middle;resizable=0;points=[];autosize=1;strokeColor=none;fillColor=none;" vertex="1" parent="1">
          <mxGeometry x="130" y="480" width="30" height="30" as="geometry" />
        </mxCell>
        <mxCell id="LzrnwDut8WQBUcOHvvvX-60" value="1" style="text;html=1;align=center;verticalAlign=middle;resizable=0;points=[];autosize=1;strokeColor=none;fillColor=none;" vertex="1" parent="1">
          <mxGeometry x="-220" y="360" width="30" height="30" as="geometry" />
        </mxCell>
        <mxCell id="LzrnwDut8WQBUcOHvvvX-61" value="codigo" style="ellipse;whiteSpace=wrap;html=1;align=center;fontStyle=4;" vertex="1" parent="1">
          <mxGeometry x="-320" y="250" width="70" height="40" as="geometry" />
        </mxCell>
        <mxCell id="LzrnwDut8WQBUcOHvvvX-62" value="descripcion" style="ellipse;whiteSpace=wrap;html=1;align=center;" vertex="1" parent="1">
          <mxGeometry x="-230" y="250" width="90" height="40" as="geometry" />
        </mxCell>
        <mxCell id="LzrnwDut8WQBUcOHvvvX-63" value="" style="endArrow=none;html=1;rounded=0;entryX=0.25;entryY=0;entryDx=0;entryDy=0;exitX=0.7;exitY=1.025;exitDx=0;exitDy=0;exitPerimeter=0;" edge="1" parent="1" source="LzrnwDut8WQBUcOHvvvX-61" target="LzrnwDut8WQBUcOHvvvX-54">
          <mxGeometry width="50" height="50" relative="1" as="geometry">
            <mxPoint y="150" as="sourcePoint" />
            <mxPoint x="-50" y="200" as="targetPoint" />
          </mxGeometry>
        </mxCell>
        <mxCell id="LzrnwDut8WQBUcOHvvvX-64" value="" style="endArrow=none;html=1;rounded=0;exitX=0.4;exitY=0.925;exitDx=0;exitDy=0;exitPerimeter=0;entryX=0.5;entryY=0;entryDx=0;entryDy=0;" edge="1" parent="1" source="LzrnwDut8WQBUcOHvvvX-62" target="LzrnwDut8WQBUcOHvvvX-54">
          <mxGeometry width="50" height="50" relative="1" as="geometry">
            <mxPoint x="-261" y="301" as="sourcePoint" />
            <mxPoint x="-220" y="310" as="targetPoint" />
          </mxGeometry>
        </mxCell>
        <mxCell id="LzrnwDut8WQBUcOHvvvX-73" style="edgeStyle=orthogonalEdgeStyle;rounded=0;orthogonalLoop=1;jettySize=auto;html=1;exitX=0.5;exitY=1;exitDx=0;exitDy=0;entryX=0.5;entryY=0;entryDx=0;entryDy=0;endArrow=none;endFill=0;shape=link;" edge="1" parent="1" source="LzrnwDut8WQBUcOHvvvX-67" target="LzrnwDut8WQBUcOHvvvX-71">
          <mxGeometry relative="1" as="geometry" />
        </mxCell>
        <mxCell id="LzrnwDut8WQBUcOHvvvX-67" value="TURNO" style="shape=ext;margin=3;double=1;whiteSpace=wrap;html=1;align=center;" vertex="1" parent="1">
          <mxGeometry x="-30" y="320" width="100" height="40" as="geometry" />
        </mxCell>
        <mxCell id="LzrnwDut8WQBUcOHvvvX-69" style="edgeStyle=orthogonalEdgeStyle;rounded=0;orthogonalLoop=1;jettySize=auto;html=1;exitX=0.5;exitY=1;exitDx=0;exitDy=0;entryX=0.5;entryY=0;entryDx=0;entryDy=0;endArrow=none;endFill=0;shape=link;" edge="1" parent="1" source="LzrnwDut8WQBUcOHvvvX-68" target="LzrnwDut8WQBUcOHvvvX-67">
          <mxGeometry relative="1" as="geometry" />
        </mxCell>
        <mxCell id="LzrnwDut8WQBUcOHvvvX-68" value="Obtiene" style="shape=rhombus;double=1;perimeter=rhombusPerimeter;whiteSpace=wrap;html=1;align=center;" vertex="1" parent="1">
          <mxGeometry x="-20" y="230" width="80" height="40" as="geometry" />
        </mxCell>
        <mxCell id="LzrnwDut8WQBUcOHvvvX-70" style="edgeStyle=orthogonalEdgeStyle;rounded=0;orthogonalLoop=1;jettySize=auto;html=1;exitX=0.5;exitY=0;exitDx=0;exitDy=0;entryX=0.32;entryY=1.075;entryDx=0;entryDy=0;entryPerimeter=0;endArrow=none;endFill=0;" edge="1" parent="1" source="LzrnwDut8WQBUcOHvvvX-68" target="LzrnwDut8WQBUcOHvvvX-1">
          <mxGeometry relative="1" as="geometry">
            <Array as="points">
              <mxPoint x="20" y="210" />
              <mxPoint x="192" y="210" />
            </Array>
          </mxGeometry>
        </mxCell>
        <mxCell id="LzrnwDut8WQBUcOHvvvX-71" value="Corresponde a" style="shape=rhombus;double=1;perimeter=rhombusPerimeter;whiteSpace=wrap;html=1;align=center;" vertex="1" parent="1">
          <mxGeometry x="-20" y="400" width="80" height="40" as="geometry" />
        </mxCell>
        <mxCell id="LzrnwDut8WQBUcOHvvvX-72" style="edgeStyle=orthogonalEdgeStyle;rounded=0;orthogonalLoop=1;jettySize=auto;html=1;exitX=0.5;exitY=1;exitDx=0;exitDy=0;entryX=0.17;entryY=0.025;entryDx=0;entryDy=0;entryPerimeter=0;endArrow=none;endFill=0;" edge="1" parent="1" source="LzrnwDut8WQBUcOHvvvX-71" target="LzrnwDut8WQBUcOHvvvX-42">
          <mxGeometry relative="1" as="geometry" />
        </mxCell>
        <mxCell id="LzrnwDut8WQBUcOHvvvX-74" value="1" style="text;html=1;align=center;verticalAlign=middle;resizable=0;points=[];autosize=1;strokeColor=none;fillColor=none;" vertex="1" parent="1">
          <mxGeometry x="160" y="138" width="30" height="30" as="geometry" />
        </mxCell>
        <mxCell id="LzrnwDut8WQBUcOHvvvX-75" value="N" style="text;html=1;align=center;verticalAlign=middle;resizable=0;points=[];autosize=1;strokeColor=none;fillColor=none;" vertex="1" parent="1">
          <mxGeometry x="25" y="288" width="30" height="30" as="geometry" />
        </mxCell>
        <mxCell id="LzrnwDut8WQBUcOHvvvX-76" value="1" style="text;html=1;align=center;verticalAlign=middle;resizable=0;points=[];autosize=1;strokeColor=none;fillColor=none;" vertex="1" parent="1">
          <mxGeometry x="175" y="460" width="30" height="30" as="geometry" />
        </mxCell>
        <mxCell id="LzrnwDut8WQBUcOHvvvX-77" value="N" style="text;html=1;align=center;verticalAlign=middle;resizable=0;points=[];autosize=1;strokeColor=none;fillColor=none;" vertex="1" parent="1">
          <mxGeometry x="20" y="360" width="30" height="30" as="geometry" />
        </mxCell>
        <mxCell id="LzrnwDut8WQBUcOHvvvX-78" value="&lt;span style=&quot;border-bottom: 1px dotted&quot;&gt;fechaYHora&lt;/span&gt;" style="ellipse;whiteSpace=wrap;html=1;align=center;" vertex="1" parent="1">
          <mxGeometry x="-120" y="270" width="100" height="40" as="geometry" />
        </mxCell>
        <mxCell id="LzrnwDut8WQBUcOHvvvX-79" value="" style="endArrow=none;html=1;rounded=0;entryX=1;entryY=1;entryDx=0;entryDy=0;exitX=0.38;exitY=-0.025;exitDx=0;exitDy=0;exitPerimeter=0;" edge="1" parent="1" source="LzrnwDut8WQBUcOHvvvX-67" target="LzrnwDut8WQBUcOHvvvX-78">
          <mxGeometry width="50" height="50" relative="1" as="geometry">
            <mxPoint x="-5" y="320" as="sourcePoint" />
            <mxPoint x="270" y="350" as="targetPoint" />
          </mxGeometry>
        </mxCell>
        <mxCell id="LzrnwDut8WQBUcOHvvvX-80" value="" style="verticalLabelPosition=bottom;verticalAlign=top;html=1;shape=mxgraph.basic.acute_triangle;dx=0.5;rotation=-180;" vertex="1" parent="1">
          <mxGeometry x="450" y="240" width="80" height="55" as="geometry" />
        </mxCell>
        <mxCell id="LzrnwDut8WQBUcOHvvvX-87" value="" style="endArrow=none;html=1;rounded=0;exitX=0;exitY=0;exitDx=40;exitDy=0;exitPerimeter=0;" edge="1" parent="1" source="LzrnwDut8WQBUcOHvvvX-80">
          <mxGeometry width="50" height="50" relative="1" as="geometry">
            <mxPoint x="719" y="271" as="sourcePoint" />
            <mxPoint x="490" y="650" as="targetPoint" />
          </mxGeometry>
        </mxCell>
        <mxCell id="LzrnwDut8WQBUcOHvvvX-88" value="" style="endArrow=none;html=1;rounded=0;" edge="1" parent="1">
          <mxGeometry width="50" height="50" relative="1" as="geometry">
            <mxPoint x="210" y="650" as="sourcePoint" />
            <mxPoint x="490" y="650" as="targetPoint" />
          </mxGeometry>
        </mxCell>
        <mxCell id="LzrnwDut8WQBUcOHvvvX-89" value="" style="endArrow=none;html=1;rounded=0;entryX=0.5;entryY=1;entryDx=0;entryDy=0;" edge="1" parent="1" target="LzrnwDut8WQBUcOHvvvX-42">
          <mxGeometry width="50" height="50" relative="1" as="geometry">
            <mxPoint x="210" y="650" as="sourcePoint" />
            <mxPoint x="500" y="660" as="targetPoint" />
          </mxGeometry>
        </mxCell>
        <mxCell id="LzrnwDut8WQBUcOHvvvX-90" value="Ordena" style="text;html=1;align=center;verticalAlign=middle;resizable=0;points=[];autosize=1;strokeColor=none;fillColor=none;" vertex="1" parent="1">
          <mxGeometry x="414" y="260" width="60" height="30" as="geometry" />
        </mxCell>
        <mxCell id="LzrnwDut8WQBUcOHvvvX-91" value="N" style="text;html=1;align=center;verticalAlign=middle;resizable=0;points=[];autosize=1;strokeColor=none;fillColor=none;" vertex="1" parent="1">
          <mxGeometry x="210" y="530" width="30" height="30" as="geometry" />
        </mxCell>
        <mxCell id="LzrnwDut8WQBUcOHvvvX-94" style="edgeStyle=orthogonalEdgeStyle;rounded=0;orthogonalLoop=1;jettySize=auto;html=1;exitX=1;exitY=0.5;exitDx=0;exitDy=0;entryX=0.5;entryY=0;entryDx=0;entryDy=0;endArrow=none;endFill=0;" edge="1" parent="1" source="LzrnwDut8WQBUcOHvvvX-99" target="LzrnwDut8WQBUcOHvvvX-30">
          <mxGeometry relative="1" as="geometry" />
        </mxCell>
        <mxCell id="LzrnwDut8WQBUcOHvvvX-92" value="Saca turno para" style="shape=rhombus;perimeter=rhombusPerimeter;whiteSpace=wrap;html=1;align=center;" vertex="1" parent="1">
          <mxGeometry x="460" y="165" width="80" height="40" as="geometry" />
        </mxCell>
        <mxCell id="LzrnwDut8WQBUcOHvvvX-95" value="fechaYHora" style="ellipse;whiteSpace=wrap;html=1;align=center;fontStyle=4;" vertex="1" parent="1">
          <mxGeometry x="540" y="190" width="90" height="40" as="geometry" />
        </mxCell>
        <mxCell id="LzrnwDut8WQBUcOHvvvX-97" value="N" style="text;html=1;align=center;verticalAlign=middle;resizable=0;points=[];autosize=1;strokeColor=none;fillColor=none;" vertex="1" parent="1">
          <mxGeometry x="717" y="190" width="30" height="30" as="geometry" />
        </mxCell>
        <mxCell id="LzrnwDut8WQBUcOHvvvX-98" value="N" style="text;html=1;align=center;verticalAlign=middle;resizable=0;points=[];autosize=1;strokeColor=none;fillColor=none;" vertex="1" parent="1">
          <mxGeometry x="260" y="125" width="30" height="30" as="geometry" />
        </mxCell>
        <mxCell id="LzrnwDut8WQBUcOHvvvX-100" value="" style="edgeStyle=orthogonalEdgeStyle;rounded=0;orthogonalLoop=1;jettySize=auto;html=1;exitX=1;exitY=0.5;exitDx=0;exitDy=0;entryX=0.5;entryY=0;entryDx=0;entryDy=0;endArrow=none;endFill=0;" edge="1" parent="1" source="LzrnwDut8WQBUcOHvvvX-92" target="LzrnwDut8WQBUcOHvvvX-99">
          <mxGeometry relative="1" as="geometry">
            <mxPoint x="540" y="185" as="sourcePoint" />
            <mxPoint x="717" y="220" as="targetPoint" />
            <Array as="points">
              <mxPoint x="673" y="185" />
            </Array>
          </mxGeometry>
        </mxCell>
        <mxCell id="LzrnwDut8WQBUcOHvvvX-99" value="" style="ellipse;whiteSpace=wrap;html=1;aspect=fixed;" vertex="1" parent="1">
          <mxGeometry x="660" y="172.5" width="25" height="25" as="geometry" />
        </mxCell>
        <mxCell id="LzrnwDut8WQBUcOHvvvX-101" value="fechaOrden" style="ellipse;whiteSpace=wrap;html=1;align=center;fontStyle=4;" vertex="1" parent="1">
          <mxGeometry x="520" y="290" width="100" height="40" as="geometry" />
        </mxCell>
        <mxCell id="LzrnwDut8WQBUcOHvvvX-102" value="" style="endArrow=none;html=1;rounded=0;exitX=0.42;exitY=0.975;exitDx=0;exitDy=0;exitPerimeter=0;entryX=0.643;entryY=-0.1;entryDx=0;entryDy=0;entryPerimeter=0;" edge="1" parent="1" source="LzrnwDut8WQBUcOHvvvX-30" target="LzrnwDut8WQBUcOHvvvX-38">
          <mxGeometry width="50" height="50" relative="1" as="geometry">
            <mxPoint x="742" y="271" as="sourcePoint" />
            <mxPoint x="775" y="307" as="targetPoint" />
          </mxGeometry>
        </mxCell>
        <mxCell id="LzrnwDut8WQBUcOHvvvX-103" value="" style="endArrow=none;html=1;rounded=0;exitX=0.125;exitY=0.636;exitDx=0;exitDy=0;exitPerimeter=0;entryX=0.31;entryY=-0.05;entryDx=0;entryDy=0;entryPerimeter=0;" edge="1" parent="1" source="LzrnwDut8WQBUcOHvvvX-80" target="LzrnwDut8WQBUcOHvvvX-101">
          <mxGeometry width="50" height="50" relative="1" as="geometry">
            <mxPoint x="719" y="269" as="sourcePoint" />
            <mxPoint x="702" y="306" as="targetPoint" />
          </mxGeometry>
        </mxCell>
      </root>
    </mxGraphModel>
  </diagram>
</mxfile>
